{
  "accessors": [
    {
      "bufferView": 2,
      "componentType": 5126,
      "count": 58496,
      "max": [
        29.48502540588379,
        10.861562728881836,
        29.494979858398438
      ],
      "min": [
        -29.411609649658203,
        -11.5037841796875,
        -30.358007431030273
      ],
      "type": "VEC3"
    },
    {
      "bufferView": 2,
      "byteOffset": 701952,
      "componentType": 5126,
      "count": 58496,
      "max": [
        0.9999906420707703,
        1.0,
        0.9999949932098389
      ],
      "min": [
        -0.9999986886978149,
        -1.0,
        -0.999992311000824
      ],
      "type": "VEC3"
    },
    {
      "bufferView": 1,
      "componentType": 5126,
      "count": 58496,
      "max": [
        0.6891988515853882,
        0.9774374961853027
      ],
      "min": [
        0.03465726971626282,
        0.5245262980461121
      ],
      "type": "VEC2"
    },
    {
      "bufferView": 0,
      "componentType": 5125,
      "count": 348636,
      "type": "SCALAR"
    },
    {
      "bufferView": 2,
      "byteOffset": 1403904,
      "componentType": 5126,
      "count": 322,
      "max": [
        8.413562774658203,
        11.5037841796875,
        7.7707343101501465
      ],
      "min": [
        -3.7742741107940674,
        5.6322102546691895,
        -9.563884735107422
      ],
      "type": "VEC3"
    },
    {
      "bufferView": 2,
      "byteOffset": 1407768,
      "componentType": 5126,
      "count": 322,
      "max": [
        0.9987106323242188,
        0.9999043941497803,
        0.9986323714256287
      ],
      "min": [
        -0.9986586570739746,
        -0.9965627193450928,
        -0.9987812638282776
      ],
      "type": "VEC3"
    },
    {
      "bufferView": 1,
      "byteOffset": 467968,
      "componentType": 5126,
      "count": 322,
      "max": [
        0.844589352607727,
        0.9510949850082397
      ],
      "min": [
        0.7444424033164978,
        0.7161859273910522
      ],
      "type": "VEC2"
    },
    {
      "bufferView": 0,
      "byteOffset": 1394544,
      "componentType": 5125,
      "count": 1908,
      "type": "SCALAR"
    },
    {
      "bufferView": 2,
      "byteOffset": 1411632,
      "componentType": 5126,
      "count": 61,
      "max": [
        6.084304332733154,
        -9.105781555175781,
        20.364452362060547
      ],
      "min": [
        -7.127599239349365,
        -9.710948944091797,
        7.189968109130859
      ],
      "type": "VEC3"
    },
    {
      "bufferView": 2,
      "byteOffset": 1412364,
      "componentType": 5126,
      "count": 61,
      "max": [
        0.017755718901753426,
        1.0,
        3.327376180095598e-05
      ],
      "min": [
        -0.025769377127289772,
        0.9758327007293701,
        -0.2177966982126236
      ],
      "type": "VEC3"
    },
    {
      "bufferView": 1,
      "byteOffset": 470544,
      "componentType": 5126,
      "count": 61,
      "max": [
        1.0,
        1.0
      ],
      "min": [
        0.0,
        0.0
      ],
      "type": "VEC2"
    },
    {
      "bufferView": 1,
      "byteOffset": 471032,
      "componentType": 5126,
      "count": 61,
      "max": [
        1.0,
        1.0
      ],
      "min": [
        0.0,
        0.0
      ],
      "type": "VEC2"
    },
    {
      "bufferView": 0,
      "byteOffset": 1402176,
      "componentType": 5125,
      "count": 288,
      "type": "SCALAR"
    },
    {
      "bufferView": 3,
      "componentType": 5126,
      "count": 127,
      "max": [
        4.166666507720947
      ],
      "min": [
        0.0
      ],
      "type": "SCALAR"
    },
    {
      "bufferView": 4,
      "componentType": 5126,
      "count": 127,
      "max": [
        8.307373568381077e-17,
        1.0,
        8.307373568381077e-17,
        1.0
      ],
      "min": [
        -8.656101003232613e-17,
        -0.8603264093399048,
        -8.656101003232613e-17,
        -0.4787408113479614
      ],
      "type": "VEC4"
    }
  ],
  "animations": [
    {
      "channels": [
        {
          "sampler": 0,
          "target": {
            "node": 4,
            "path": "rotation"
          }
        }
      ],
      "name": "Take 001",
      "samplers": [
        {
          "input": 13,
          "interpolation": "LINEAR",
          "output": 14
        }
      ]
    }
  ],
  "asset": {
    "extras": {
      "author": "DemonFawwn (https://sketchfab.com/demonfawwn)",
      "license": "CC-BY-4.0 (http://creativecommons.org/licenses/by/4.0/)",
      "source": "https://sketchfab.com/3d-models/cupcake-candles-c113735307204d87ab6b38ce2eebb462",
      "title": "Cupcake candles"
    },
    "generator": "Sketchfab-12.67.0",
    "version": "2.0"
  },
  "bufferViews": [
    {
      "buffer": 0,
      "byteLength": 1403328,
      "name": "floatBufferViews",
      "target": 34963
    },
    {
      "buffer": 0,
      "byteLength": 471520,
      "byteOffset": 1403328,
      "byteStride": 8,
      "name": "floatBufferViews",
      "target": 34962
    },
    {
      "buffer": 0,
      "byteLength": 1413096,
      "byteOffset": 1874848,
      "byteStride": 12,
      "name": "floatBufferViews",
      "target": 34962
    },
    {
      "buffer": 0,
      "byteLength": 508,
      "byteOffset": 3287944,
      "name": "floatBufferViews"
    },
    {
      "buffer": 0,
      "byteLength": 2032,
      "byteOffset": 3288452,
      "byteStride": 16,
      "name": "floatBufferViews"
    }
  ],
  "buffers": [
    {
      "byteLength": 3290484,
      "uri": "scene.bin"
    }
  ],
  "images": [
    {
      "uri": "textures/lambert3_baseColor.jpeg"
    },
    {
      "uri": "textures/pasted__logo_baseColor.png"
    }
  ],
  "materials": [
    {
      "doubleSided": true,
      "name": "lambert3",
      "pbrMetallicRoughness": {
        "baseColorTexture": {
          "index": 0
        },
        "metallicFactor": 0.0,
        "roughnessFactor": 0.6
      }
    },
    {
      "doubleSided": true,
      "name": "fire",
      "pbrMetallicRoughness": {
        "baseColorTexture": {
          "index": 0
        },
        "metallicFactor": 0.0,
        "roughnessFactor": 0.6
      }
    },
    {
      "alphaMode": "BLEND",
      "doubleSided": true,
      "name": "pasted__logo",
      "pbrMetallicRoughness": {
        "baseColorTexture": {
          "index": 1
        },
        "metallicFactor": 0.0,
        "roughnessFactor": 0.6
      }
    }
  ],
  "meshes": [
    {
      "name": "polySurface11_lambert3_0",
      "primitives": [
        {
          "attributes": {
            "NORMAL": 1,
            "POSITION": 0,
            "TEXCOORD_0": 2
          },
          "indices": 3,
          "material": 0,
          "mode": 4
        }
      ]
    },
    {
      "name": "polySurface11_fire_0",
      "primitives": [
        {
          "attributes": {
            "NORMAL": 5,
            "POSITION": 4,
            "TEXCOORD_0": 6
          },
          "indices": 7,
          "material": 1,
          "mode": 4
        }
      ]
    },
    {
      "name": "polySurface11_pasted__logo_0",
      "primitives": [
        {
          "attributes": {
            "NORMAL": 9,
            "POSITION": 8,
            "TEXCOORD_0": 10,
            "TEXCOORD_1": 11
          },
          "indices": 12,
          "material": 2,
          "mode": 4
        }
      ]
    }
  ],
  "nodes": [
    {
      "children": [
        1
      ],
      "matrix": [
        1.0,
        0.0,
        0.0,
        0.0,
        0.0,
        2.220446049250313e-16,
        -1.0,
        0.0,
        0.0,
        1.0,
        2.220446049250313e-16,
        0.0,
        0.0,
        0.0,
        0.0,
        1.0
      ],
      "name": "Sketchfab_model"
    },
    {
      "children": [
        2
      ],
      "matrix": [
        1.0,
        0.0,
        0.0,
        0.0,
        0.0,
        0.0,
        1.0,
        0.0,
        0.0,
        -1.0,
        0.0,
        0.0,
        0.0,
        0.0,
        0.0,
        1.0
      ],
      "name": "9dfda5493da5431d8ffd37eddb13b983.fbx"
    },
    {
      "children": [
        3
      ],
      "name": "Object_2"
    },
    {
      "children": [
        4
      ],
      "name": "RootNode"
    },
    {
      "children": [
        5,
        6,
        7
      ],
      "name": "polySurface11",
      "rotation": [
        0.0,
        -0.08364444971084595,
        0.0,
        0.9964956641197205
      ],
      "translation": [
        -0.10660949349403381,
        8.284648895263672,
        0.0706816241145134
      ]
    },
    {
      "mesh": 0,
      "name": "polySurface11_lambert3_0"
    },
    {
      "mesh": 1,
      "name": "polySurface11_fire_0"
    },
    {
      "mesh": 2,
      "name": "polySurface11_pasted__logo_0"
    }
  ],
  "samplers": [
    {
      "magFilter": 9729,
      "minFilter": 9987,
      "wrapS": 10497,
      "wrapT": 10497
    }
  ],
  "scene": 0,
  "scenes": [
    {
      "name": "Sketchfab_Scene",
      "nodes": [
        0
      ]
    }
  ],
  "textures": [
    {
      "sampler": 0,
      "source": 0
    },
    {
      "sampler": 0,
      "source": 1
    }
  ]
}
