{
  "accessors": [
    {
      "bufferView": 2,
      "componentType": 5126,
      "count": 2200,
      "max": [
        0.7817371487617493,
        0.5039721727371216,
        0.5033258199691772
      ],
      "min": [
        -0.8146883845329285,
        -0.5353032946586609,
        -0.30756860971450806
      ],
      "type": "VEC3"
    },
    {
      "bufferView": 2,
      "byteOffset": 26400,
      "componentType": 5126,
      "count": 2200,
      "max": [
        0.9999803304672241,
        0.9999934434890747,
        0.9999998807907104
      ],
      "min": [
        -0.9999616146087646,
        -0.999995231628418,
        -0.2908690869808197
      ],
      "type": "VEC3"
    },
    {
      "bufferView": 3,
      "componentType": 5126,
      "count": 2200,
      "max": [
        0.9999986886978149,
        0.9896275401115417,
        0.999796450138092,
        1.0
      ],
      "min": [
        -0.9121863842010498,
        -0.9849229454994202,
        -0.9999852776527405,
        1.0
      ],
      "type": "VEC4"
    },
    {
      "bufferView": 1,
      "componentType": 5126,
      "count": 2200,
      "max": [
        0.9998013973236084,
        1.0001493692398071
      ],
      "min": [
        9.072104148799554e-05,
        -3.53435825672932e-05
      ],
      "type": "VEC2"
    },
    {
      "bufferView": 0,
      "componentType": 5125,
      "count": 12411,
      "type": "SCALAR"
    }
  ],
  "asset": {
    "extras": {
      "author": "grafikzeug (https://sketchfab.com/grafikzeug)",
      "license": "CC-BY-4.0 (http://creativecommons.org/licenses/by/4.0/)",
      "source": "https://sketchfab.com/3d-models/tablecloth-lowpoly-728d645702484493924e368b11dbc914",
      "title": "Tablecloth Lowpoly"
    },
    "generator": "Sketchfab-12.68.0",
    "version": "2.0"
  },
  "bufferViews": [
    {
      "buffer": 0,
      "byteLength": 49644,
      "name": "floatBufferViews",
      "target": 34963
    },
    {
      "buffer": 0,
      "byteLength": 17600,
      "byteOffset": 49644,
      "byteStride": 8,
      "name": "floatBufferViews",
      "target": 34962
    },
    {
      "buffer": 0,
      "byteLength": 52800,
      "byteOffset": 67244,
      "byteStride": 12,
      "name": "floatBufferViews",
      "target": 34962
    },
    {
      "buffer": 0,
      "byteLength": 35200,
      "byteOffset": 120044,
      "byteStride": 16,
      "name": "floatBufferViews",
      "target": 34962
    }
  ],
  "buffers": [
    {
      "byteLength": 155244,
      "uri": "scene.bin"
    }
  ],
  "images": [
    {
      "uri": "textures/material_0_baseColor.png"
    },
    {
      "uri": "textures/material_0_metallicRoughness.png"
    },
    {
      "uri": "textures/material_0_normal.png"
    }
  ],
  "materials": [
    {
      "doubleSided": true,
      "name": "material_0",
      "normalTexture": {
        "index": 2
      },
      "occlusionTexture": {
        "index": 1,
        "strength": 0.6623105012395785
      },
      "pbrMetallicRoughness": {
        "baseColorTexture": {
          "index": 0
        },
        "metallicRoughnessTexture": {
          "index": 1
        }
      }
    }
  ],
  "meshes": [
    {
      "name": "Object_0",
      "primitives": [
        {
          "attributes": {
            "NORMAL": 1,
            "POSITION": 0,
            "TANGENT": 2,
            "TEXCOORD_0": 3
          },
          "indices": 4,
          "material": 0,
          "mode": 4
        }
      ]
    }
  ],
  "nodes": [
    {
      "children": [
        1
      ],
      "matrix": [
        1.0,
        0.0,
        0.0,
        0.0,
        0.0,
        2.220446049250313e-16,
        -1.0,
        0.0,
        0.0,
        1.0,
        2.220446049250313e-16,
        0.0,
        0.0,
        0.0,
        0.0,
        1.0
      ],
      "name": "Sketchfab_model"
    },
    {
      "children": [
        2
      ],
      "name": "Tablecloth01_loresmesh.obj.cleaner.materialmerger.gles"
    },
    {
      "mesh": 0,
      "name": "Object_2"
    }
  ],
  "samplers": [
    {
      "magFilter": 9729,
      "minFilter": 9987,
      "wrapS": 10497,
      "wrapT": 10497
    }
  ],
  "scene": 0,
  "scenes": [
    {
      "name": "Sketchfab_Scene",
      "nodes": [
        0
      ]
    }
  ],
  "textures": [
    {
      "sampler": 0,
      "source": 0
    },
    {
      "sampler": 0,
      "source": 1
    },
    {
      "sampler": 0,
      "source": 2
    }
  ]
}
