{
  "accessors": [
    {
      "bufferView": 2,
      "componentType": 5126,
      "count": 65532,
      "max": [
        90.0,
        3.075000047683716,
        90.0
      ],
      "min": [
        0.0,
        1.1749999523162842,
        0.0
      ],
      "type": "VEC3"
    },
    {
      "bufferView": 2,
      "byteOffset": 786384,
      "componentType": 5126,
      "count": 65532,
      "max": [
        1.0,
        1.0,
        1.0
      ],
      "min": [
        -1.0,
        -1.0,
        -1.0
      ],
      "type": "VEC3"
    },
    {
      "bufferView": 0,
      "componentType": 5125,
      "count": 69507,
      "type": "SCALAR"
    },
    {
      "bufferView": 2,
      "byteOffset": 1572768,
      "componentType": 5126,
      "count": 8623,
      "max": [
        89.1212158203125,
        2.1731534004211426,
        89.1427993774414
      ],
      "min": [
        0.8499984741210938,
        1.1749999523162842,
        0.8806556463241577
      ],
      "type": "VEC3"
    },
    {
      "bufferView": 2,
      "byteOffset": 1676244,
      "componentType": 5126,
      "count": 8623,
      "max": [
        0.9993481040000916,
        0.9723435640335083,
        0.9998371005058289
      ],
      "min": [
        -1.0,
        -0.9969145655632019,
        -0.9998371005058289
      ],
      "type": "VEC3"
    },
    {
      "bufferView": 0,
      "byteOffset": 278028,
      "componentType": 5125,
      "count": 8907,
      "type": "SCALAR"
    },
    {
      "bufferView": 2,
      "byteOffset": 1779720,
      "componentType": 5126,
      "count": 2028,
      "max": [
        45.400001525878906,
        1.375,
        45.39966583251953
      ],
      "min": [
        44.599998474121094,
        0.0,
        44.599998474121094
      ],
      "type": "VEC3"
    },
    {
      "bufferView": 2,
      "byteOffset": 1804056,
      "componentType": 5126,
      "count": 2028,
      "max": [
        1.0,
        1.0,
        1.0
      ],
      "min": [
        -1.0,
        -1.0,
        -1.0
      ],
      "type": "VEC3"
    },
    {
      "bufferView": 0,
      "byteOffset": 313656,
      "componentType": 5125,
      "count": 4044,
      "type": "SCALAR"
    },
    {
      "bufferView": 2,
      "byteOffset": 1828392,
      "componentType": 5126,
      "count": 1392,
      "max": [
        89.85000610351563,
        2.2750000953674316,
        89.58486938476563
      ],
      "min": [
        0.14999771118164063,
        2.174999952316284,
        -0.0
      ],
      "type": "VEC3"
    },
    {
      "bufferView": 2,
      "byteOffset": 1845096,
      "componentType": 5126,
      "count": 1392,
      "max": [
        0.9987164735794067,
        1.0,
        1.0
      ],
      "min": [
        -0.9987164735794067,
        -1.0,
        -1.0
      ],
      "type": "VEC3"
    },
    {
      "bufferView": 1,
      "componentType": 5126,
      "count": 1392,
      "max": [
        17.940000534057617,
        17.936975479125977
      ],
      "min": [
        0.0,
        0.0
      ],
      "type": "VEC2"
    },
    {
      "bufferView": 0,
      "byteOffset": 329832,
      "componentType": 5125,
      "count": 2784,
      "type": "SCALAR"
    },
    {
      "bufferView": 2,
      "byteOffset": 1861800,
      "componentType": 5126,
      "count": 5598,
      "max": [
        59.80628204345703,
        0.8300000429153442,
        68.5530014038086
      ],
      "min": [
        41.50975799560547,
        0.3000282049179077,
        32.59628677368164
      ],
      "type": "VEC3"
    },
    {
      "bufferView": 2,
      "byteOffset": 1928976,
      "componentType": 5126,
      "count": 5598,
      "max": [
        0.9999983906745911,
        0.9914940595626831,
        0.9999974370002747
      ],
      "min": [
        -0.9999983906745911,
        -0.9912354946136475,
        -0.999997615814209
      ],
      "type": "VEC3"
    },
    {
      "bufferView": 1,
      "byteOffset": 11136,
      "componentType": 5126,
      "count": 5598,
      "max": [
        0.08034858107566833,
        0.2463340312242508
      ],
      "min": [
        0.0,
        0.0
      ],
      "type": "VEC2"
    },
    {
      "bufferView": 0,
      "byteOffset": 340968,
      "componentType": 5125,
      "count": 6264,
      "type": "SCALAR"
    }
  ],
  "asset": {
    "extras": {
      "author": "Jetstorm-3D (https://sketchfab.com/Jetstorm_477)",
      "license": "CC-BY-NC-4.0 (http://creativecommons.org/licenses/by-nc/4.0/)",
      "source": "https://sketchfab.com/3d-models/wide-clock-2ee535f286354b7eb0268e829547b8a3",
      "title": "Wide Clock"
    },
    "generator": "Sketchfab-12.67.0",
    "version": "2.0"
  },
  "bufferViews": [
    {
      "buffer": 0,
      "byteLength": 366024,
      "name": "floatBufferViews",
      "target": 34963
    },
    {
      "buffer": 0,
      "byteLength": 55920,
      "byteOffset": 366024,
      "byteStride": 8,
      "name": "floatBufferViews",
      "target": 34962
    },
    {
      "buffer": 0,
      "byteLength": 1996152,
      "byteOffset": 421944,
      "byteStride": 12,
      "name": "floatBufferViews",
      "target": 34962
    }
  ],
  "buffers": [
    {
      "byteLength": 2418096,
      "uri": "scene.bin"
    }
  ],
  "images": [
    {
      "uri": "textures/default_default_1_3_baseColor.png"
    },
    {
      "uri": "textures/default_default_1_5_baseColor.png"
    }
  ],
  "materials": [
    {
      "doubleSided": true,
      "name": "default",
      "pbrMetallicRoughness": {
        "baseColorFactor": [
          0.0,
          0.0,
          0.0,
          1.0
        ],
        "metallicFactor": 0.0,
        "roughnessFactor": 0.72
      }
    },
    {
      "doubleSided": true,
      "name": "default_default_1_2",
      "pbrMetallicRoughness": {
        "baseColorFactor": [
          0.733333,
          0.733333,
          0.733333,
          1.0
        ],
        "metallicFactor": 0.9500000000000001,
        "roughnessFactor": 0.07999999999999996
      }
    },
    {
      "doubleSided": true,
      "name": "default_default_1_3",
      "pbrMetallicRoughness": {
        "baseColorTexture": {
          "index": 0
        },
        "roughnessFactor": 0.16000000000000003
      }
    },
    {
      "alphaMode": "BLEND",
      "doubleSided": true,
      "name": "default_default_1_5",
      "pbrMetallicRoughness": {
        "baseColorFactor": [
          0.0,
          0.0,
          0.0,
          1.0
        ],
        "baseColorTexture": {
          "index": 1
        },
        "metallicFactor": 0.0,
        "roughnessFactor": 0.73
      }
    }
  ],
  "meshes": [
    {
      "name": "Object_0",
      "primitives": [
        {
          "attributes": {
            "NORMAL": 1,
            "POSITION": 0
          },
          "indices": 2,
          "material": 0,
          "mode": 4
        }
      ]
    },
    {
      "name": "Object_1",
      "primitives": [
        {
          "attributes": {
            "NORMAL": 4,
            "POSITION": 3
          },
          "indices": 5,
          "material": 0,
          "mode": 4
        }
      ]
    },
    {
      "name": "Object_2",
      "primitives": [
        {
          "attributes": {
            "NORMAL": 7,
            "POSITION": 6
          },
          "indices": 8,
          "material": 1,
          "mode": 4
        }
      ]
    },
    {
      "name": "Object_3",
      "primitives": [
        {
          "attributes": {
            "NORMAL": 10,
            "POSITION": 9,
            "TEXCOORD_0": 11
          },
          "indices": 12,
          "material": 3,
          "mode": 4
        }
      ]
    },
    {
      "name": "Object_4",
      "primitives": [
        {
          "attributes": {
            "NORMAL": 14,
            "POSITION": 13,
            "TEXCOORD_0": 15
          },
          "indices": 16,
          "material": 2,
          "mode": 4
        }
      ]
    }
  ],
  "nodes": [
    {
      "children": [
        1
      ],
      "matrix": [
        0.010564224794507027,
        0.0,
        0.0,
        0.0,
        0.0,
        2.3457291208355328e-18,
        -0.010564224794507027,
        0.0,
        0.0,
        0.010564224794507027,
        2.3457291208355328e-18,
        0.0,
        0.0,
        0.0,
        0.0,
        1.0
      ],
      "name": "Sketchfab_model"
    },
    {
      "children": [
        2,
        3,
        4,
        5,
        6
      ],
      "name": "Pendule.obj.cleaner.gles"
    },
    {
      "mesh": 0,
      "name": "Object_2"
    },
    {
      "mesh": 1,
      "name": "Object_3"
    },
    {
      "mesh": 2,
      "name": "Object_4"
    },
    {
      "mesh": 3,
      "name": "Object_5"
    },
    {
      "mesh": 4,
      "name": "Object_6"
    }
  ],
  "samplers": [
    {
      "magFilter": 9729,
      "minFilter": 9987,
      "wrapS": 10497,
      "wrapT": 10497
    }
  ],
  "scene": 0,
  "scenes": [
    {
      "name": "Sketchfab_Scene",
      "nodes": [
        0
      ]
    }
  ],
  "textures": [
    {
      "sampler": 0,
      "source": 0
    },
    {
      "sampler": 0,
      "source": 1
    }
  ]
}
