{
  "accessors": [
    {
      "bufferView": 1,
      "componentType": 5126,
      "count": 528,
      "max": [
        1.0,
        1.0,
        0.17000000178813934
      ],
      "min": [
        -1.0,
        -1.0,
        -0.15000000596046448
      ],
      "type": "VEC3"
    },
    {
      "bufferView": 1,
      "byteOffset": 6336,
      "componentType": 5126,
      "count": 528,
      "max": [
        0.965925931930542,
        0.965925931930542,
        1.0
      ],
      "min": [
        -0.965925931930542,
        -0.965925931930542,
        -1.0
      ],
      "type": "VEC3"
    },
    {
      "bufferView": 0,
      "componentType": 5125,
      "count": 1074,
      "type": "SCALAR"
    },
    {
      "bufferView": 1,
      "byteOffset": 12672,
      "componentType": 5126,
      "count": 306,
      "max": [
        0.8999999761581421,
        0.8999999761581421,
        0.1440799981355667
      ],
      "min": [
        -0.8999999761581421,
        -0.8999999761581421,
        0.07935000211000443
      ],
      "type": "VEC3"
    },
    {
      "bufferView": 1,
      "byteOffset": 16344,
      "componentType": 5126,
      "count": 306,
      "max": [
        1.0,
        1.0,
        1.0
      ],
      "min": [
        -1.0,
        -1.0,
        0.0
      ],
      "type": "VEC3"
    },
    {
      "bufferView": 0,
      "byteOffset": 4296,
      "componentType": 5125,
      "count": 498,
      "type": "SCALAR"
    },
    {
      "bufferView": 1,
      "byteOffset": 20016,
      "componentType": 5126,
      "count": 24,
      "max": [
        0.5,
        0.019999999552965164,
        0.019999999552965164
      ],
      "min": [
        -0.5,
        -0.019999999552965164,
        -0.019999999552965164
      ],
      "type": "VEC3"
    },
    {
      "bufferView": 1,
      "byteOffset": 20304,
      "componentType": 5126,
      "count": 24,
      "max": [
        1.0,
        1.0,
        1.0
      ],
      "min": [
        -1.0,
        -1.0,
        -1.0
      ],
      "type": "VEC3"
    },
    {
      "bufferView": 0,
      "byteOffset": 6288,
      "componentType": 5125,
      "count": 36,
      "type": "SCALAR"
    },
    {
      "bufferView": 1,
      "byteOffset": 20592,
      "componentType": 5126,
      "count": 24,
      "max": [
        0.5,
        0.019999999552965164,
        0.019999999552965164
      ],
      "min": [
        -0.5,
        -0.019999999552965164,
        -0.019999999552965164
      ],
      "type": "VEC3"
    },
    {
      "bufferView": 1,
      "byteOffset": 20880,
      "componentType": 5126,
      "count": 24,
      "max": [
        1.0,
        1.0,
        1.0
      ],
      "min": [
        -1.0,
        -1.0,
        -1.0
      ],
      "type": "VEC3"
    },
    {
      "bufferView": 0,
      "byteOffset": 6432,
      "componentType": 5125,
      "count": 36,
      "type": "SCALAR"
    }
  ],
  "asset": {
    "extras": {
      "author": "Jiří Kuba (https://sketchfab.com/kuba.jirka)",
      "license": "CC-BY-4.0 (http://creativecommons.org/licenses/by/4.0/)",
      "source": "https://sketchfab.com/3d-models/clock-edbece2124814b29b31b0718fd913e57",
      "title": "Clock"
    },
    "generator": "Sketchfab-12.68.0",
    "version": "2.0"
  },
  "bufferViews": [
    {
      "buffer": 0,
      "byteLength": 6576,
      "name": "floatBufferViews",
      "target": 34963
    },
    {
      "buffer": 0,
      "byteLength": 21168,
      "byteOffset": 6576,
      "byteStride": 12,
      "name": "floatBufferViews",
      "target": 34962
    }
  ],
  "buffers": [
    {
      "byteLength": 27744,
      "uri": "scene.bin"
    }
  ],
  "materials": [
    {
      "doubleSided": true,
      "name": "ClockValueMaterial",
      "pbrMetallicRoughness": {
        "baseColorFactor": [
          0.03740986809134483,
          0.03740986809134483,
          0.03740986809134483,
          1.0
        ],
        "metallicFactor": 0.0,
        "roughnessFactor": 0.6
      }
    },
    {
      "doubleSided": true,
      "name": "ClockMaterial",
      "pbrMetallicRoughness": {
        "metallicFactor": 0.0,
        "roughnessFactor": 0.6
      }
    }
  ],
  "meshes": [
    {
      "name": "Clock_0",
      "primitives": [
        {
          "attributes": {
            "NORMAL": 1,
            "POSITION": 0
          },
          "indices": 2,
          "material": 1,
          "mode": 4
        }
      ]
    },
    {
      "name": "Clock_1",
      "primitives": [
        {
          "attributes": {
            "NORMAL": 4,
            "POSITION": 3
          },
          "indices": 5,
          "material": 0,
          "mode": 4
        }
      ]
    },
    {
      "name": "ClockArm_0",
      "primitives": [
        {
          "attributes": {
            "NORMAL": 7,
            "POSITION": 6
          },
          "indices": 8,
          "material": 0,
          "mode": 4
        }
      ]
    },
    {
      "name": "ClockArm.001_0",
      "primitives": [
        {
          "attributes": {
            "NORMAL": 10,
            "POSITION": 9
          },
          "indices": 11,
          "material": 0,
          "mode": 4
        }
      ]
    }
  ],
  "nodes": [
    {
      "children": [
        1
      ],
      "matrix": [
        1.0,
        0.0,
        0.0,
        0.0,
        0.0,
        2.220446049250313e-16,
        -1.0,
        0.0,
        0.0,
        1.0,
        2.220446049250313e-16,
        0.0,
        0.0,
        0.0,
        0.0,
        1.0
      ],
      "name": "Sketchfab_model"
    },
    {
      "children": [
        2,
        5,
        7
      ],
      "name": "Root"
    },
    {
      "children": [
        3,
        4
      ],
      "name": "Clock"
    },
    {
      "mesh": 0,
      "name": "Clock_0"
    },
    {
      "mesh": 1,
      "name": "Clock_1"
    },
    {
      "children": [
        6
      ],
      "matrix": [
        0.81583,
        0.23857,
        0.0,
        0.0,
        -0.28067000000000003,
        0.95981,
        0.0,
        0.0,
        0.0,
        0.0,
        1.0,
        0.0,
        -0.3748700000000001,
        -0.10962000000000002,
        0.16410000000000002,
        1.0
      ],
      "name": "ClockArm"
    },
    {
      "mesh": 2,
      "name": "ClockArm_0"
    },
    {
      "children": [
        8
      ],
      "matrix": [
        0.47649,
        0.48513,
        0.0,
        0.0,
        -0.71343,
        0.7007300000000001,
        0.0,
        0.0,
        0.0,
        0.0,
        1.0,
        0.0,
        0.23242000000000002,
        0.2321,
        0.16410000000000002,
        1.0
      ],
      "name": "ClockArm.001"
    },
    {
      "mesh": 3,
      "name": "ClockArm.001_0"
    }
  ],
  "scene": 0,
  "scenes": [
    {
      "name": "Sketchfab_Scene",
      "nodes": [
        0
      ]
    }
  ]
}
