{
    "asset" : {
        "generator" : "Khronos glTF Blender I/O v3.3.27",
        "version" : "2.0"
    },
    "scene" : 0,
    "scenes" : [
        {
            "name" : "Scene",
            "nodes" : [
                38
            ]
        }
    ],
    "nodes" : [
        {
            "name" : "Balloon.%_42",
            "translation" : [
                -0.7668764591217041,
                -3.6036176681518555,
                0.00784129649400711
            ]
        },
        {
            "name" : "Balloon.,_41",
            "translation" : [
                -1.261379361152649,
                -3.6640191078186035,
                0.008206307888031006
            ]
        },
        {
            "name" : "Balloon.._40",
            "translation" : [
                -1.3850042819976807,
                -3.5982515811920166,
                0.008435256779193878
            ]
        },
        {
            "name" : "Balloon.:_46",
            "translation" : [
                -0.08259552717208862,
                -3.5874738693237305,
                -0.003915145993232727
            ]
        },
        {
            "name" : "Balloon.;_43",
            "translation" : [
                -0.2936656177043915,
                -3.649503707885742,
                0.010318383574485779
            ]
        },
        {
            "name" : "Balloon.<_45",
            "translation" : [
                0.21977782249450684,
                -3.425227403640747,
                0.00789150595664978
            ]
        },
        {
            "name" : "Balloon.=_48",
            "translation" : [
                1.017991304397583,
                -3.4364819526672363,
                0.008540473878383636
            ]
        },
        {
            "name" : "Balloon.>_44",
            "translation" : [
                0.6275126934051514,
                -3.4226906299591064,
                0.006648898124694824
            ]
        },
        {
            "name" : "Balloon.A_1",
            "translation" : [
                -1.0393962860107422,
                0.7360601425170898,
                -0.0023025646805763245
            ]
        },
        {
            "name" : "Balloon.B_2",
            "translation" : [
                -0.6625851392745972,
                0.7318809032440186,
                -0.004880301654338837
            ]
        },
        {
            "mesh" : 0,
            "name" : "Object_10",
            "translation" : [
                0.3199999928474426,
                -0.7100000381469727,
                0
            ]
        },
        {
            "children" : [
                10
            ],
            "name" : "Balloon.C_3",
            "translation" : [
                -0.24873390793800354,
                0.7297483086585999,
                -0.00949515774846077
            ]
        },
        {
            "name" : "Balloon.D_4",
            "translation" : [
                0.09336915612220764,
                0.7334508895874023,
                0.005882173776626587
            ]
        },
        {
            "name" : "Balloon.E_5",
            "translation" : [
                0.4374682903289795,
                0.7376747131347656,
                -0.005434907972812653
            ]
        },
        {
            "name" : "Balloon.H_8",
            "translation" : [
                -1.3580065965652466,
                0.04140862450003624,
                -0.004822678864002228
            ]
        },
        {
            "name" : "Balloon.I_9",
            "translation" : [
                -1.0498028993606567,
                0.05209752172231674,
                -0.0037209950387477875
            ]
        },
        {
            "name" : "Balloon.J_10",
            "translation" : [
                -0.8234870433807373,
                0.045351702719926834,
                -0.004603669047355652
            ]
        },
        {
            "name" : "Balloon.K_11",
            "translation" : [
                -0.4894193410873413,
                0.04182829707860947,
                -0.005368512123823166
            ]
        },
        {
            "mesh" : 1,
            "name" : "Object_28",
            "translation" : [
                -0.5,
                0,
                0
            ]
        },
        {
            "children" : [
                18
            ],
            "name" : "Balloon.L_12",
            "translation" : [
                -0.17444416880607605,
                0.042337365448474884,
                -0.008008234202861786
            ]
        },
        {
            "name" : "Balloon.M_13",
            "translation" : [
                0.2350204735994339,
                0.03841251879930496,
                -0.0043080151081085205
            ]
        },
        {
            "name" : "Balloon.N_14",
            "translation" : [
                0.7010787725448608,
                0.050893716514110565,
                -0.0037877336144447327
            ]
        },
        {
            "name" : "Balloon.O_15",
            "translation" : [
                1.1139624118804932,
                0.030800413340330124,
                0.0012559369206428528
            ]
        },
        {
            "name" : "Balloon.P_16",
            "translation" : [
                1.5204025506973267,
                0.043436095118522644,
                -0.0033884458243846893
            ]
        },
        {
            "name" : "Balloon.Q_17",
            "translation" : [
                -1.0066386461257935,
                -0.72026526927948,
                0.005171135067939758
            ]
        },
        {
            "name" : "Balloon.R_18",
            "translation" : [
                -0.6168943643569946,
                -0.6532359719276428,
                -0.003771897405385971
            ]
        },
        {
            "name" : "Balloon.S_19",
            "translation" : [
                -0.2084687054157257,
                -0.6415724754333496,
                0.005715113133192062
            ]
        },
        {
            "name" : "Balloon.T_20",
            "translation" : [
                0.18102934956550598,
                -0.6469510793685913,
                -0.0008531399071216583
            ]
        },
        {
            "mesh" : 2,
            "name" : "Object_46",
            "translation" : [
                -0.8999999165534973,
                0.6700000762939453,
                0
            ]
        },
        {
            "children" : [
                28
            ],
            "name" : "Balloon.U_21",
            "translation" : [
                0.5644336938858032,
                -0.6618027091026306,
                -0.0013042278587818146
            ]
        },
        {
            "name" : "Balloon.V_22",
            "translation" : [
                0.9673185348510742,
                -0.6471856832504272,
                -0.0018691308796405792
            ]
        },
        {
            "name" : "Balloon.W_23",
            "translation" : [
                -0.5028846263885498,
                -1.394110083580017,
                -0.0008262582123279572
            ]
        },
        {
            "name" : "Balloon.X_0",
            "translation" : [
                -0.030293000862002373,
                -1.392561435699463,
                9.255483746528625e-05
            ]
        },
        {
            "mesh" : 3,
            "name" : "Object_52",
            "translation" : [
                0.04999998211860657,
                1.3899999856948853,
                0
            ]
        },
        {
            "children" : [
                33
            ],
            "name" : "Balloon.Y_24",
            "translation" : [
                0.3128994107246399,
                -1.3861690759658813,
                -0.00029830262064933777
            ]
        },
        {
            "name" : "Balloon.Z_25",
            "translation" : [
                0.684969961643219,
                -1.369089126586914,
                -0.0008012168109416962
            ]
        },
        {
            "children" : [
                0,
                1,
                2,
                3,
                4,
                5,
                6,
                7,
                8,
                9,
                11,
                12,
                13,
                14,
                15,
                16,
                17,
                19,
                20,
                21,
                22,
                23,
                24,
                25,
                26,
                27,
                29,
                30,
                31,
                32,
                34,
                35
            ],
            "name" : "GLTF_SceneRootNode",
            "rotation" : [
                0.7071068286895752,
                0,
                0,
                0.7071067094802856
            ]
        },
        {
            "children" : [
                36
            ],
            "name" : "root"
        },
        {
            "children" : [
                37
            ],
            "name" : "Sketchfab_model",
            "rotation" : [
                -0.7071068286895752,
                0,
                0,
                0.7071067094802856
            ]
        }
    ],
    "materials" : [
        {
            "doubleSided" : true,
            "name" : "Gold_Balloon",
            "pbrMetallicRoughness" : {
                "baseColorFactor" : [
                    0.800000011920929,
                    0.5396749973297119,
                    0.16466699540615082,
                    1
                ],
                "roughnessFactor" : 0.15000000596046448
            }
        }
    ],
    "meshes" : [
        {
            "name" : "Object_3",
            "primitives" : [
                {
                    "attributes" : {
                        "POSITION" : 0,
                        "NORMAL" : 1
                    },
                    "indices" : 2,
                    "material" : 0
                }
            ]
        },
        {
            "name" : "Object_12",
            "primitives" : [
                {
                    "attributes" : {
                        "POSITION" : 3,
                        "NORMAL" : 4
                    },
                    "indices" : 5,
                    "material" : 0
                }
            ]
        },
        {
            "name" : "Object_21",
            "primitives" : [
                {
                    "attributes" : {
                        "POSITION" : 6,
                        "NORMAL" : 7
                    },
                    "indices" : 8,
                    "material" : 0
                }
            ]
        },
        {
            "name" : "Object_24",
            "primitives" : [
                {
                    "attributes" : {
                        "POSITION" : 9,
                        "NORMAL" : 10
                    },
                    "indices" : 11,
                    "material" : 0
                }
            ]
        }
    ],
    "accessors" : [
        {
            "bufferView" : 0,
            "componentType" : 5126,
            "count" : 2586,
            "max" : [
                0.08559484779834747,
                0.5244747400283813,
                0.04744904488325119
            ],
            "min" : [
                -0.16994883120059967,
                -0.006831958889961243,
                -0.04744904488325119
            ],
            "type" : "VEC3"
        },
        {
            "bufferView" : 1,
            "componentType" : 5126,
            "count" : 2586,
            "type" : "VEC3"
        },
        {
            "bufferView" : 2,
            "componentType" : 5123,
            "count" : 13968,
            "type" : "SCALAR"
        },
        {
            "bufferView" : 3,
            "componentType" : 5126,
            "count" : 1604,
            "max" : [
                0.10609626770019531,
                0.508507251739502,
                0.04895925521850586
            ],
            "min" : [
                -0.10609626770019531,
                0,
                -0.04895925521850586
            ],
            "type" : "VEC3"
        },
        {
            "bufferView" : 4,
            "componentType" : 5126,
            "count" : 1604,
            "type" : "VEC3"
        },
        {
            "bufferView" : 5,
            "componentType" : 5123,
            "count" : 8760,
            "type" : "SCALAR"
        },
        {
            "bufferView" : 6,
            "componentType" : 5126,
            "count" : 2820,
            "max" : [
                0.1460123062133789,
                0.5386142730712891,
                0.04697711393237114
            ],
            "min" : [
                -0.1460123062133789,
                0,
                -0.04697711393237114
            ],
            "type" : "VEC3"
        },
        {
            "bufferView" : 7,
            "componentType" : 5126,
            "count" : 2820,
            "type" : "VEC3"
        },
        {
            "bufferView" : 8,
            "componentType" : 5123,
            "count" : 15432,
            "type" : "SCALAR"
        },
        {
            "bufferView" : 9,
            "componentType" : 5126,
            "count" : 1870,
            "max" : [
                0.1584157943725586,
                0.5286956429481506,
                0.049074769020080566
            ],
            "min" : [
                -0.1584157943725586,
                0,
                -0.049074769020080566
            ],
            "type" : "VEC3"
        },
        {
            "bufferView" : 10,
            "componentType" : 5126,
            "count" : 1870,
            "type" : "VEC3"
        },
        {
            "bufferView" : 11,
            "componentType" : 5123,
            "count" : 10044,
            "type" : "SCALAR"
        }
    ],
    "bufferViews" : [
        {
            "buffer" : 0,
            "byteLength" : 31032,
            "byteOffset" : 0,
            "target" : 34962
        },
        {
            "buffer" : 0,
            "byteLength" : 31032,
            "byteOffset" : 31032,
            "target" : 34962
        },
        {
            "buffer" : 0,
            "byteLength" : 27936,
            "byteOffset" : 62064,
            "target" : 34963
        },
        {
            "buffer" : 0,
            "byteLength" : 19248,
            "byteOffset" : 90000,
            "target" : 34962
        },
        {
            "buffer" : 0,
            "byteLength" : 19248,
            "byteOffset" : 109248,
            "target" : 34962
        },
        {
            "buffer" : 0,
            "byteLength" : 17520,
            "byteOffset" : 128496,
            "target" : 34963
        },
        {
            "buffer" : 0,
            "byteLength" : 33840,
            "byteOffset" : 146016,
            "target" : 34962
        },
        {
            "buffer" : 0,
            "byteLength" : 33840,
            "byteOffset" : 179856,
            "target" : 34962
        },
        {
            "buffer" : 0,
            "byteLength" : 30864,
            "byteOffset" : 213696,
            "target" : 34963
        },
        {
            "buffer" : 0,
            "byteLength" : 22440,
            "byteOffset" : 244560,
            "target" : 34962
        },
        {
            "buffer" : 0,
            "byteLength" : 22440,
            "byteOffset" : 267000,
            "target" : 34962
        },
        {
            "buffer" : 0,
            "byteLength" : 20088,
            "byteOffset" : 289440,
            "target" : 34963
        }
    ],
    "buffers" : [
        {
            "byteLength" : 309528,
            "uri" : "scene.bin"
        }
    ]
}
